<mxfile host="app.diagrams.net" agent="Mozilla/5.0 (Windows NT 10.0; Win64; x64) AppleWebKit/537.36 (KHTML, like Gecko) Chrome/135.0.0.0 Safari/537.36" version="26.2.13">
  <diagram name="第 1 页" id="Qz8ORCj6hSFBmxh-uSy6">
    <mxGraphModel dx="1675" dy="-1355" grid="1" gridSize="10" guides="1" tooltips="1" connect="1" arrows="1" fold="1" page="1" pageScale="1" pageWidth="827" pageHeight="1169" math="0" shadow="0">
      <root>
        <mxCell id="0" />
        <mxCell id="1" parent="0" />
        <mxCell id="746akOVxLBQA7Rwp9O0J-1" value="&lt;font style=&quot;font-size: 18px;&quot;&gt;scene&lt;/font&gt;&lt;div&gt;&lt;font style=&quot;font-size: 18px;&quot;&gt;（容器）&lt;/font&gt;&lt;/div&gt;" style="rounded=0;whiteSpace=wrap;html=1;" vertex="1" parent="1">
          <mxGeometry x="70" y="2450" width="120" height="60" as="geometry" />
        </mxCell>
        <mxCell id="746akOVxLBQA7Rwp9O0J-2" value="&lt;font data-darkreader-inline-bgcolor=&quot;&quot; data-darkreader-inline-color=&quot;&quot; style=&quot;--darkreader-inline-color: var(--darkreader-text-ffffff, #e8e6e3); background-color: light-dark(#ffffff, var(--ge-dark-color, #121212)); --darkreader-inline-bgcolor: light-dark(#ffffff, var(--darkreader-bg--ge-dark-color, var(--darkreader-background-121212, #0e0f0f))); color: rgb(255, 0, 0);&quot;&gt;正确存储场景中的entity；&lt;br&gt;场景中的entity交互，需要通知scene&lt;/font&gt;" style="shape=note;whiteSpace=wrap;html=1;backgroundOutline=1;fontColor=#000000;darkOpacity=0.05;fillColor=#FFF9B2;strokeColor=none;fillStyle=solid;direction=west;gradientDirection=north;gradientColor=#FFF2A1;shadow=1;size=20;pointerEvents=1;" vertex="1" parent="1">
          <mxGeometry x="190" y="2450" width="180" height="110" as="geometry" />
        </mxCell>
      </root>
    </mxGraphModel>
  </diagram>
</mxfile>
